<svg width="462" height="282" viewBox="0 0 462 282" fill="none" xmlns="http://www.w3.org/2000/svg">
<path d="M234.323 166.989C230.978 178.55 215.623 190.911 204.397 187.663C193.171 184.415 192.481 169.469 195.826 157.908C199.171 146.346 211.694 134.382 222.92 137.631C234.146 140.879 237.668 155.428 234.323 166.989Z" fill="#14482B"/>
<path d="M259.275 112.76C263.695 120.631 266.678 132.841 252.721 140.678C240.449 147.568 235.392 138.223 230.973 130.352C226.553 122.481 227.451 109.097 236.038 104.275C244.625 99.4534 254.856 104.889 259.275 112.76Z" fill="#14482B"/>
<path d="M275.109 214.361C271.764 225.922 264.073 246.67 252.847 243.422C233.139 237.72 233.149 212.546 236.494 200.985C239.839 189.424 252.438 180.374 263.664 183.622C274.89 186.87 278.454 202.8 275.109 214.361Z" fill="#14482B"/>
<path d="M339.419 214.814C336.074 226.375 325.283 236.057 316.837 233.613C301.704 229.235 298.193 208.055 301.538 196.494C304.883 184.933 315.919 176.236 327.145 179.484C338.371 182.732 342.764 203.253 339.419 214.814Z" fill="#14482B"/>
<path d="M398.895 243.73C395.55 255.292 383.884 266.199 376.426 264.041C367.276 261.393 361.016 235.982 364.361 224.421C367.706 212.86 371.682 202.018 387.118 210.139C399.42 216.612 402.24 232.169 398.895 243.73Z" fill="#14482B"/>
<path d="M409.234 264.622C411.168 276.501 421.442 288.728 429.105 287.481C438.506 285.95 447.246 264.861 445.312 252.983C443.377 241.104 439.924 231.867 423.093 236.162C409.623 239.599 407.3 252.743 409.234 264.622Z" fill="#14482B"/>
<path d="M262.44 275.564C264.658 289.191 275.256 303.412 282.92 302.164C292.321 300.633 300.075 280.154 297.856 266.527C295.637 252.901 290.712 239.722 273.917 244.239C260.477 247.854 260.221 261.937 262.44 275.564Z" fill="#14482B"/>
<path d="M304.321 264.056C301.753 275.75 303.549 290.118 312.881 292.168C323.922 294.593 334.462 280.07 337.03 268.376C339.599 256.682 339.792 244.379 326.986 241.454C314.739 238.656 306.89 252.363 304.321 264.056Z" fill="#14482B"/>
<path d="M183.576 222.311C181.007 234.004 184.801 253.94 202.967 256.15C214.189 257.515 220.044 243.926 222.613 232.232C225.182 220.539 222.497 202.796 209.69 199.871C197.444 197.074 186.144 210.617 183.576 222.311Z" fill="#14482B"/>
<path d="M367.909 182.121C368.393 191.191 363.763 203.42 357.137 203.774C345.264 204.408 338.886 187.964 338.402 178.893C337.918 169.823 342.906 161.062 351.713 160.592C360.521 160.122 367.425 173.05 367.909 182.121Z" fill="#14482B"/>
<path d="M300.874 154.808C304.042 165.29 304.208 183.312 288.886 187.943C275.414 192.015 271.659 178.531 268.491 168.049C265.323 157.567 269.439 140.515 278.866 137.666C288.293 134.817 297.706 144.326 300.874 154.808Z" fill="#14482B"/>
<path d="M157.995 135.146C160.435 126.455 172.188 107.424 182.155 110.223C197.467 114.523 194.746 134.144 192.305 142.835C189.865 151.525 181.348 161.206 168.426 157.577C155.505 153.949 155.554 143.837 157.995 135.146Z" fill="#14482B"/>
<path d="M117.272 118.304C119.713 109.613 130.055 95.59 142.119 98.9777C159.899 103.971 154.71 122.899 152.269 131.589C149.829 140.28 141.311 149.961 128.39 146.332C115.469 142.704 114.832 126.995 117.272 118.304Z" fill="#14482B"/>
<path d="M146.505 186.933C151.289 175.812 159.029 164.147 170.566 167.387C187.571 172.162 182.377 191.089 179.937 199.779C177.496 208.47 167.661 226.365 151.862 221.928C136.062 217.491 141.041 199.633 146.505 186.933Z" fill="#14482B"/>
<path d="M143.259 185.661C148.008 174.524 150.524 158.726 145.226 155.435C134.885 149.01 119.287 160.419 114.68 168.182C110.074 175.945 100.052 200.272 115.807 210.92C125.409 216.618 137.837 198.379 143.259 185.661Z" fill="#14482B"/>
<path d="M64.4298 167.967C66.8703 159.276 76.9855 143.63 89.0489 147.018C103.117 150.968 100.36 173.09 97.9191 181.781C95.4785 190.472 86.9614 200.152 74.0401 196.523C61.1188 192.895 61.9892 176.658 64.4298 167.967Z" fill="#14482B"/>
<path d="M71.0405 109.566C78.2113 104.083 95.1867 96.5145 101.889 105.28C111.768 118.199 95.8967 133.794 88.7259 139.277C81.5551 144.761 68.1648 147.572 60.9855 138.183C53.8063 128.794 63.8697 115.049 71.0405 109.566Z" fill="#14482B"/>
<path d="M17.1687 120.705C20.251 114.109 23.5316 106.043 33.6689 112.027C43.5394 117.852 39.814 127.452 33.9314 134.028C29.3592 139.14 22.5466 141.739 18.0927 138.995C13.6388 136.25 14.7477 125.885 17.1687 120.705Z" fill="#14482B"/>
<path d="M28.6474 165.689C29.4219 155.955 34.6588 139.432 46.6076 141.55C57.1907 143.426 61.0937 160.881 56.7919 171.905C53.4483 180.474 45.5807 185.993 38.6967 184.637C31.8127 183.281 28.039 173.335 28.6474 165.689Z" fill="#14482B"/>
<path d="M-9.82917 160.513C-1.59382 149.491 16.3394 140.616 24.0176 150.013C32.9907 160.995 18.7114 181.357 8.91702 187.998C1.30452 193.16 -6.69956 189.375 -10.4773 184.798C-14.255 180.222 -16.1479 168.971 -9.82917 160.513Z" fill="#14482B"/>
<path d="M-25.4522 119.653C-18.763 109.412 -2.58811 103.551 5.92609 112.333C18.3125 125.109 8.44478 139.782 -1.34957 146.423C-8.96207 151.585 -18.231 150.661 -25.0709 144.362C-29.2573 140.506 -30.6405 127.596 -25.4522 119.653Z" fill="#14482B"/>
<path d="M-12.8058 220.477C-8.70708 205.944 7.03965 192.128 18.9925 198.246C36.3816 207.146 30.2013 228.095 21.6209 239.949C14.9519 249.163 4.60603 252.248 -4.76299 248.186C-10.4974 245.7 -15.9848 231.749 -12.8058 220.477Z" fill="#14482B"/>
<path d="M31.9757 222.648C33.9858 209.246 45.0944 194.413 54.8648 197.641C64.6351 200.868 65.97 221.704 60.2655 233.561C55.8317 242.776 48.0503 247.293 40.4511 245.403C30.0757 242.823 30.4166 233.044 31.9757 222.648Z" fill="#14482B"/>
<path d="M72.673 228.982C74.0938 214.795 87.4754 199.924 100.764 204.298C114.052 208.671 115.523 224.58 109.047 236.764C104.014 246.234 94.4977 256.424 86.063 254.179C74.2148 251.025 71.5709 239.986 72.673 228.982Z" fill="#14482B"/>
<path d="M116.089 253.156C118.37 239.249 123.497 221.904 142.008 228.028C151.334 231.113 152.837 241.719 147.038 254.124C142.531 263.765 127.458 275.775 121.493 274.332C115.527 272.889 114.32 263.943 116.089 253.156Z" fill="#14482B"/>
<path d="M142.406 278.121C144.862 263.677 154.64 245.337 173.15 251.465C182.475 254.552 183.168 268.701 177.199 281.629C172.56 291.678 163.387 302.429 152.002 299.712C146.031 298.288 140.501 289.325 142.406 278.121Z" fill="#14482B"/>
<path d="M170.965 307.014C173.42 292.569 184.991 270.016 200.299 275.083C207.42 277.44 212.495 298.049 206.526 310.978C201.886 321.027 193.107 332.735 181.722 330.019C175.751 328.594 169.06 318.218 170.965 307.014Z" fill="#14482B"/>
<path d="M214.78 279.789C217.464 264.64 230.291 244.614 240.965 248.735C259.264 255.8 256.422 278.038 252.899 285.781C248.086 296.364 235.499 304.903 224.099 302.233C218.12 300.832 212.698 291.539 214.78 279.789Z" fill="#14482B"/>
<path d="M332.369 293.209C334.959 278.029 347.189 264.362 358.37 268.648C377.537 275.995 371.905 294.88 368.34 302.609C363.469 313.173 352.798 322.172 340.882 319.333C334.632 317.844 330.36 304.983 332.369 293.209Z" fill="#14482B"/>
<path d="M406.052 292.009C409.519 305.684 403.655 322.959 394.612 323.554C379.108 324.573 376.427 306.659 376.181 298.855C375.846 288.191 379.881 273.864 389.107 272.865C395.768 272.143 403.363 281.402 406.052 292.009Z" fill="#14482B"/>
<path d="M37.4968 270.312C34.928 282.005 36.7245 296.374 46.0563 298.423C57.097 300.849 67.6371 286.325 70.2058 274.631C72.7746 262.938 72.9674 250.635 60.1614 247.709C47.9148 244.912 40.0655 258.618 37.4968 270.312Z" fill="#14482B"/>
<path d="M73.2499 288.997C75.84 273.817 88.0698 260.15 99.2503 264.435C118.418 271.782 112.785 290.667 109.221 298.397C104.35 308.96 93.6787 317.96 81.7622 315.121C75.5122 313.632 71.2409 300.77 73.2499 288.997Z" fill="#14482B"/>
<path d="M24.8595 278.93C22.548 292.847 10.2449 306.318 1.72288 303.234C-12.8868 297.947 -8.1547 280.461 -5.24818 273.215C-1.27611 263.312 8.16827 251.809 17.0205 254.595C23.4109 256.607 26.6524 268.135 24.8595 278.93Z" fill="#14482B"/>
</svg>
