<svg width="53" height="53" viewBox="0 0 53 53" fill="none" xmlns="http://www.w3.org/2000/svg">
<path d="M15.0131 45.7834H26.8782L22.1905 32.4206H24.4904L13.4608 0L2.4307 32.4206H4.73069L0.0429688 45.7834H11.9084V49.8953H4.35383V53H22.5673V49.8953H15.0131V45.7834ZM4.42216 42.6792L9.10989 29.3159H6.76623L13.4608 9.63908L20.1553 29.3159H17.8117L22.4994 42.6792H15.0131V27.853H11.9084V42.6792H4.42216Z" fill="white"/>
<path d="M41.0847 43.3249C42.0624 42.4426 44.1598 40.4265 46.2694 37.6065C50.0679 32.529 52.0755 27.2432 52.0755 22.3202C52.0755 17.3975 50.0679 12.1117 46.2694 7.03381C43.4425 3.25549 40.6367 0.919106 40.5186 0.821655L39.5251 0L38.5316 0.821655C38.4135 0.919106 35.6077 3.25549 32.7808 7.03381C28.9822 12.1117 26.9746 17.3975 26.9746 22.3202C26.9746 27.2432 28.9822 32.529 32.7808 37.6065C34.8907 40.4265 36.9881 42.4426 37.9659 43.3249V49.8812H30.3773V53H48.6733V49.8812H41.0847V43.3249ZM30.0934 22.3202C30.0934 13.9212 36.9218 6.60923 39.5267 4.12607C42.1332 6.60519 48.9571 13.8998 48.9571 22.3202C48.9571 29.3519 44.1711 35.6207 41.0847 38.9332V27.739H37.9659V38.9397C34.879 35.634 30.0934 29.3726 30.0934 22.3202Z" fill="white"/>
</svg>
